<svg data-v-423bf9ae="" xmlns="http://www.w3.org/2000/svg" viewBox="0 0 362.6953125 60" class="font"><!----><!----><!----><g data-v-423bf9ae="" id="47076a75-4f1c-4c3f-ae66-2a41081a22c3" fill="white" transform="matrix(4.285714149475098,0,0,4.285714149475098,0.000005764886736869812,-12.00334644317627)"><path d="M5.80 3.23C6.27 3.23 6.48 3.49 6.48 3.86C6.48 4.66 5.56 6.03 4.98 6.68C5.10 6.92 5.26 7.00 5.42 7.00C6.19 7.00 7.04 5.11 7.04 4.02C7.04 3.15 6.51 2.81 5.75 2.81C3.09 2.81 0 6.99 0 10.68C0 12.39 0.77 14.10 2.76 14.10C4.63 14.10 6.16 12.59 7.10 10.75L6.90 10.61C6.16 12.21 4.58 13.62 3.09 13.62C1.68 13.62 1.12 12.31 1.12 10.92C1.12 7.77 3.78 3.23 5.80 3.23ZM12.56 10.64C12.19 11.41 11.84 11.70 11.45 11.70C10.96 11.70 10.47 11.26 10.47 10.54C10.47 9.80 11.02 9.13 11.02 8.78C11.02 8.61 10.89 8.23 10.54 8.23C10.50 8.23 10.47 8.23 10.44 8.25C10.36 8.08 10.19 7.95 9.84 7.95C8.18 7.95 6.45 10.63 6.45 12.11C6.45 12.82 6.86 13.33 7.57 13.33C8.55 13.33 9.44 12.38 10.02 11.00C10.30 11.65 10.82 11.98 11.34 11.98C11.80 11.98 12.33 11.72 12.74 10.78ZM7.88 12.73C7.55 12.73 7.35 12.45 7.35 12.01C7.35 10.95 8.48 8.50 10.07 8.50C9.91 8.74 9.80 9.14 9.80 9.77C9.80 10.09 9.83 10.35 9.88 10.57C9.38 11.77 8.51 12.73 7.88 12.73ZM17.15 3.84C17.15 3.44 16.98 2.80 16.69 2.80C15.74 2.80 12.33 9.17 12.33 11.86C12.33 12.68 12.66 13.30 13.45 13.30C14.46 13.30 15.34 12.32 16.09 10.72L15.88 10.61C15.39 11.70 14.60 12.85 13.86 12.85C13.45 12.85 13.24 12.50 13.24 11.77C13.24 11.35 13.31 10.86 13.43 10.36C15.47 8.67 17.15 5.08 17.15 3.84ZM16.62 3.93C16.66 3.93 16.72 3.98 16.72 4.16C16.72 5.10 15.18 8.25 13.55 9.88C14.32 7.18 16.24 3.93 16.62 3.93ZM19.24 13.19C19.42 12.81 19.61 12.33 19.91 11.89C20.78 10.56 21.28 9.80 21.74 9.80C21.95 9.80 22.15 9.94 22.15 10.30C22.15 10.85 21.73 11.61 21.73 12.29C21.73 12.85 22.01 13.31 22.67 13.31C23.79 13.31 24.64 11.98 25.09 10.81L24.92 10.61C24.49 11.56 23.81 12.82 23.04 12.82C22.72 12.82 22.62 12.60 22.62 12.35C22.62 11.76 23.14 10.75 23.14 10.01C23.14 9.53 22.93 9.11 22.34 9.11C21.39 9.11 20.61 10.21 20.02 11.27C20.17 10.89 20.45 10.01 20.45 9.30C20.45 8.72 20.27 8.23 19.70 8.23C18.69 8.23 17.50 9.70 16.74 10.89C16.95 10.19 17.11 9.55 17.11 9.30C17.11 9.07 16.98 8.93 16.73 8.93C16.46 8.93 16.20 9.10 16.09 9.23C16.07 10.46 15.12 12.75 15.12 12.96C15.12 13.10 15.61 13.26 15.88 13.26C16.56 11.37 18.24 9.16 19.05 9.16C19.31 9.16 19.40 9.37 19.40 9.69C19.40 10.67 18.52 12.66 18.52 12.91C18.52 13.10 19.01 13.19 19.24 13.19ZM28.59 9.91C27.90 10.92 26.52 12.96 25.65 12.96C25.40 12.96 25.27 12.80 25.27 12.42C25.27 11.06 26.84 8.46 28.15 8.46C28.66 8.46 28.84 8.82 28.84 9.24C28.84 9.39 28.81 9.58 28.77 9.73C29.18 9.73 29.46 9.59 29.46 9.13C29.46 8.50 28.91 8.08 28.18 8.08C26.36 8.08 24.30 10.71 24.30 12.38C24.30 13.16 24.75 13.54 25.34 13.54C26.03 13.54 26.64 12.99 27.45 11.91C27.43 12.07 27.41 12.21 27.41 12.32C27.41 12.81 27.73 13.30 28.42 13.30C29.41 13.30 30.60 12.26 31.19 10.75L31.05 10.61C30.21 12.10 29.32 12.82 28.81 12.82C28.48 12.82 28.34 12.49 28.34 12.21C28.34 11.54 29.15 10.58 29.15 10.26C29.15 10.05 28.76 9.94 28.59 9.91ZM30.93 11.34C31.22 10.84 31.74 9.76 32.17 8.65C32.52 8.90 32.96 9.11 32.96 9.72C32.96 10.46 32.19 11.51 32.19 12.33C32.19 12.88 32.58 13.24 33.21 13.24C34.40 13.24 35.60 11.98 36.13 10.79L35.95 10.65C35.60 11.47 34.45 12.74 33.57 12.74C33.35 12.74 33.15 12.66 33.15 12.32C33.15 11.73 33.85 10.81 33.85 9.95C33.85 8.76 32.42 8.53 32.42 8.01C32.42 7.95 32.58 7.59 32.58 7.49C32.58 7.39 32.58 7.15 32.38 7.15C32.23 7.15 31.79 7.55 31.79 8.11C31.79 8.25 31.85 8.36 31.93 8.44C31.53 9.63 31.05 10.61 30.80 11.10ZM40.47 8.92C40.82 8.92 41.30 8.93 41.99 8.99C40.80 10.85 39.86 12.60 39.86 13.37C39.86 13.55 39.91 13.86 40.33 14.10C41.03 12.45 41.89 10.68 42.77 9.06C43.34 9.13 44.02 9.21 44.84 9.34C44.69 10.11 44.60 10.82 44.60 11.42C44.60 12.56 44.93 13.30 45.70 13.30C46.62 13.30 47.56 12.25 48.12 10.75L47.98 10.61C47.25 12.03 46.63 12.68 46.14 12.68C45.77 12.68 45.63 12.28 45.63 11.56C45.63 9.11 47.25 3.70 47.81 3.25C47.53 2.97 47.26 2.80 47.07 2.80C46.89 2.80 46.68 2.93 46.40 3.19C45.53 4.00 43.88 6.15 42.45 8.29C42.08 8.23 41.75 8.19 41.44 8.19C40.73 8.19 40.18 8.39 39.98 8.92ZM46.62 3.68C46.05 4.97 45.35 7.00 44.94 8.85C44.41 8.72 43.76 8.55 43.13 8.41C44.44 6.09 45.75 4.21 46.62 3.68ZM50.71 8.15C49.28 8.15 47.64 10.00 47.64 11.87C47.64 13.08 48.31 13.66 49.21 13.66C50.57 13.66 52.04 12.43 52.68 10.74L52.50 10.60C51.90 12.15 50.64 13.13 49.53 13.13C48.73 13.13 48.51 12.54 48.51 11.97C48.51 10.60 49.81 8.54 50.81 8.54C51.04 8.54 51.11 8.67 51.11 8.89C51.11 9.31 50.88 9.86 50.60 10.00C50.72 10.15 50.86 10.21 51.00 10.21C51.44 10.21 51.70 9.73 51.70 9.18C51.70 8.69 51.48 8.15 50.71 8.15ZM56.17 9.91C55.48 10.92 54.10 12.96 53.23 12.96C52.98 12.96 52.85 12.80 52.85 12.42C52.85 11.06 54.42 8.46 55.73 8.46C56.24 8.46 56.42 8.82 56.42 9.24C56.42 9.39 56.39 9.58 56.35 9.73C56.76 9.73 57.04 9.59 57.04 9.13C57.04 8.50 56.49 8.08 55.76 8.08C53.94 8.08 51.88 10.71 51.88 12.38C51.88 13.16 52.33 13.54 52.92 13.54C53.61 13.54 54.22 12.99 55.03 11.91C55.01 12.07 54.99 12.21 54.99 12.32C54.99 12.81 55.31 13.30 56.00 13.30C56.99 13.30 58.18 12.26 58.77 10.75L58.63 10.61C57.79 12.10 56.90 12.82 56.39 12.82C56.06 12.82 55.92 12.49 55.92 12.21C55.92 11.54 56.73 10.58 56.73 10.26C56.73 10.05 56.34 9.94 56.17 9.91ZM62.50 8.47C62.51 8.40 62.52 8.34 62.52 8.27C62.52 7.98 62.30 7.84 61.91 7.84C60.17 7.84 58.14 10.57 58.14 12.12C58.14 12.95 58.72 13.30 59.19 13.30C60.05 13.30 61.14 12.19 62.05 10.70C61.88 11.34 61.78 11.87 61.78 12.19C61.78 12.68 62.01 13.24 62.71 13.24C63.66 13.24 64.88 12.18 65.42 10.74L65.25 10.61C64.67 11.89 63.67 12.68 63.10 12.68C62.78 12.68 62.78 12.43 62.78 11.90C62.78 9.13 66.00 4.00 66.00 3.12C66.00 2.94 65.87 2.80 65.72 2.80C64.95 2.80 63.69 6.08 62.65 8.78C61.75 11.12 60.38 12.63 59.63 12.63C59.32 12.63 59.12 12.38 59.12 11.96C59.12 10.88 60.45 8.26 61.96 8.26C62.22 8.26 62.40 8.33 62.50 8.47ZM69.23 8.69C69.23 8.01 68.80 7.84 68.36 7.84C66.71 7.84 64.81 10.21 64.81 11.87C64.81 12.78 65.38 13.50 66.51 13.50C67.90 13.50 69.36 12.42 70.11 10.74L69.94 10.61C69.24 11.96 68.00 13.09 66.81 13.09C65.94 13.09 65.70 12.49 65.70 11.91C65.70 11.77 65.72 11.59 65.76 11.41C67.35 11.26 69.23 10.12 69.23 8.69ZM68.32 8.27C68.56 8.27 68.61 8.39 68.61 8.60C68.61 9.80 66.82 10.79 65.83 11.14C66.21 9.81 67.42 8.27 68.32 8.27ZM73.30 13.19C73.49 12.81 73.68 12.33 73.98 11.89C74.84 10.56 75.35 9.80 75.81 9.80C76.02 9.80 76.22 9.94 76.22 10.30C76.22 10.85 75.80 11.61 75.80 12.29C75.80 12.85 76.08 13.31 76.73 13.31C77.85 13.31 78.71 11.98 79.16 10.81L78.99 10.61C78.55 11.56 77.88 12.82 77.11 12.82C76.79 12.82 76.69 12.60 76.69 12.35C76.69 11.76 77.21 10.75 77.21 10.01C77.21 9.53 77 9.11 76.41 9.11C75.46 9.11 74.68 10.21 74.09 11.27C74.24 10.89 74.52 10.01 74.52 9.30C74.52 8.72 74.34 8.23 73.77 8.23C72.76 8.23 71.57 9.70 70.81 10.89C71.02 10.19 71.18 9.55 71.18 9.30C71.18 9.07 71.05 8.93 70.80 8.93C70.53 8.93 70.27 9.10 70.15 9.23C70.14 10.46 69.19 12.75 69.19 12.96C69.19 13.10 69.68 13.26 69.94 13.26C70.63 11.37 72.31 9.16 73.12 9.16C73.37 9.16 73.47 9.37 73.47 9.69C73.47 10.67 72.59 12.66 72.59 12.91C72.59 13.10 73.08 13.19 73.30 13.19ZM83.23 9.07C83.12 9.04 83.02 9.03 82.94 9.03C82.47 9.03 82.28 9.48 82.22 9.74C82.18 9.97 82.14 10.18 82.08 10.39C81.52 11.31 80.75 12.18 80.22 12.18C79.84 12.18 79.72 11.96 79.72 11.62C79.72 10.86 80.32 9.35 80.64 8.88C80.64 8.71 80.14 8.55 80.02 8.55C79.62 8.55 78.79 10.57 78.79 11.61C78.79 12.39 79.37 12.74 79.91 12.74C80.67 12.74 81.35 11.94 81.96 10.96C81.70 11.98 81.44 12.84 81.17 13.52C79.76 14.24 78.46 14.87 78.46 16.06C78.46 16.55 78.86 16.80 79.34 16.80C80.30 16.80 81.26 15.16 81.98 13.37C83.02 12.89 84.21 12.10 84.63 10.75L84.45 10.61C83.92 11.90 83.01 12.66 82.14 12.99C82.80 11.30 83.23 9.53 83.23 9.07ZM79.27 16.35C78.99 16.35 78.89 16.09 78.89 15.93C78.89 15.01 79.87 14.48 81.03 13.86C80.28 15.71 79.55 16.35 79.27 16.35Z"></path></g><!----><!----></svg>